<?xml version="1.0" encoding="UTF-8"?>
<svg id="Layer_2" data-name="Layer 2" xmlns="http://www.w3.org/2000/svg" viewBox="0 0 185.42 61.87">
  <defs>
    <style>
      .cls-1 {
        fill: #fff;
      }
    </style>
  </defs>
  <g id="Layer_1-2" data-name="Layer 1">
    <g>
      <g>
        <g>
          <path d="M115.78,32.88c.76,0,1.23-.46,1.23-1.03s-.49-1.01-1.2-1.01-1.25.46-1.25,1.01.52,1.03,1.23,1.03Z"/>
          <path d="M112.4,32.88h.03c.71,0,1.2-.46,1.2-1.03s-.52-1.01-1.2-1.01-1.23.46-1.23,1.01.49,1.03,1.2,1.03Z"/>
          <path d="M114.03,34.94c-3.33,0-6,1.93-6,5.18s2.56,5.02,5.81,5.02h.03c2.86,0,6-1.58,6-5.2,0-2.96-2.35-5-5.83-5ZM113.95,43.8h-.03c-2.13,0-3.63-1.6-3.63-3.73,0-1.86,1.12-3.8,3.68-3.8s3.63,2.08,3.63,3.73c0,2.22-1.55,3.8-3.65,3.8Z"/>
          <path d="M150.81,47.29c-.71,0-1.25.46-1.25,1.01s.52,1.03,1.2,1.03h.03c.76,0,1.23-.46,1.23-1.03s-.49-1.01-1.2-1.01Z"/>
          <path d="M158.34,32.88h.03c.74,0,1.23-.46,1.23-1.03s-.49-1.01-1.2-1.01-1.25.46-1.25,1.01.49,1.03,1.2,1.03Z"/>
          <path d="M157.38,40.69c0,1.88-.86,2.99-2.59,3-1.65-.03-2.81-1.23-2.78-2.48v-6.03l-2.21.61v5.24c0,1.54-.85,2.65-2.51,2.65h-18.67c-1.55-.02-2.81-1.14-2.81-2.22v-4.3l-2.18.64v5.97c.14,3.64-1.2,4.06-3.27,4.21l.27,1.4c3.65-.09,5.18-1.8,5.18-4.96v-.68c.79.81,1.94,1.38,3.6,1.38h18.7c1.64,0,2.89-.81,3.41-1.95.87,1.18,2.13,1.95,4.06,1.95,1.64,0,4.01-.86,4.01-4.23v-5.73l-2.21.61v4.89Z"/>
        </g>
        <g>
          <path d="M94.95,12.5v14.6h-3.29l-4.46-7.05c-.69-1.12-1.08-1.74-1.16-1.88-.23-.4-.48-.87-.73-1.4.09,1.1.14,2.47.14,4.1v6.22h-3.14v-14.6h3.33l4.34,6.89c.89,1.42,1.55,2.54,1.96,3.37-.09-1.51-.14-2.91-.14-4.18v-6.08h3.14Z"/>
          <path d="M108.52,12.47l5.68,14.63h-3.43l-1.19-3.28h-5.56l-1.21,3.28h-3.36l5.7-14.63h3.38ZM108.79,21.5l-.97-2.63c-.45-1.22-.78-2.27-1-3.17-.25.86-.6,1.92-1.05,3.17l-.97,2.63h3.98Z"/>
          <path d="M118.71,12.5h6.73c1.44,0,2.51.18,3.23.54.67.33,1.17.81,1.51,1.44.29.53.43,1.1.43,1.69,0,.83-.28,1.55-.83,2.17-.3.35-.7.63-1.2.85.57.19.99.39,1.28.59.97.69,1.45,1.7,1.45,3.03,0,1.15-.37,2.11-1.12,2.88-.91.95-2.3,1.42-4.15,1.42h-7.33v-14.6ZM121.97,15.01v3.41h2.99c.69,0,1.2-.08,1.53-.24.61-.29.91-.78.91-1.48s-.3-1.2-.89-1.47c-.32-.15-.84-.22-1.56-.22h-2.98ZM121.97,20.6v4h3.31c.94,0,1.6-.13,1.98-.39.51-.35.76-.89.76-1.61,0-.86-.34-1.44-1.03-1.75-.38-.17-1.01-.25-1.89-.25h-3.14Z"/>
          <path d="M136.56,12.5h7.24c1.43,0,2.53.22,3.29.66,1.3.75,1.95,1.9,1.95,3.47,0,1.11-.35,2.01-1.04,2.73-.37.38-.81.66-1.34.85.66.16,1.17.52,1.55,1.08.28.42.48.99.58,1.71.03.21.11.89.21,2.04.09,1.02.24,1.65.45,1.9l.14.17h-3.41c-.08-.16-.16-.38-.22-.65-.05-.22-.12-1-.22-2.35-.1-1.2-.45-1.99-1.05-2.36-.4-.25-1.05-.37-1.93-.37h-2.94v5.74h-3.26v-14.6ZM139.82,15.01v4.02h3.11c1,0,1.71-.14,2.12-.41.52-.35.77-.89.77-1.61,0-.86-.35-1.44-1.05-1.75-.38-.17-.95-.25-1.7-.25h-3.26Z"/>
          <path d="M162.59,12.47l5.68,14.63h-3.43l-1.19-3.28h-5.56l-1.21,3.28h-3.36l5.7-14.63h3.38ZM162.86,21.5l-.97-2.63c-.45-1.22-.78-2.27-1-3.17-.25.86-.6,1.92-1.05,3.17l-.97,2.63h3.98Z"/>
          <path d="M185.42,12.5v14.6h-3.26v-6.35h-6.12v6.35h-3.26v-14.6h3.26v5.54h6.12v-5.54h3.26Z"/>
        </g>
      </g>
      <g>
        <path d="M61.24,15.84c-.7-7.54-7.67-14.52-15.24-15.22C36-.21,25.86-.21,15.84.62,8.29,1.32,1.32,8.3.62,15.86-.21,25.86-.21,36,.62,46.01h0c.71,7.57,7.68,14.53,15.24,15.24,5,.41,10.03.62,15.07.62s10.08-.21,15.09-.62c7.55-.71,14.52-7.67,15.22-15.24.83-10.01.83-20.15,0-30.17ZM12.18,35.88h-3.35v-9.89h3.35v9.89ZM18.99,38.93h-3.35v-16.01h3.35v16.01ZM25.8,43.88h-3.36v-25.9h3.36v25.9ZM32.61,51.88h-3.36V9.98h3.36v41.9ZM39.42,43.88h-3.35v-25.9h3.35v25.9ZM46.23,38.93h-3.35v-16.01h3.35v16.01ZM53.04,35.88h-3.36v-9.89h3.36v9.89Z"/>
        <g>
          <rect class="cls-1" x="29.25" y="9.98" width="3.36" height="41.9"/>
          <rect class="cls-1" x="36.07" y="17.98" width="3.35" height="25.9"/>
          <rect class="cls-1" x="49.68" y="25.99" width="3.36" height="9.89"/>
          <rect class="cls-1" x="42.87" y="22.93" width="3.35" height="16.01"/>
          <rect class="cls-1" x="22.44" y="17.98" width="3.36" height="25.9"/>
          <rect class="cls-1" x="8.82" y="25.99" width="3.35" height="9.89"/>
          <rect class="cls-1" x="15.63" y="22.93" width="3.35" height="16.01"/>
        </g>
      </g>
    </g>
  </g>
</svg>